<?xml version="1.0" encoding="UTF-8" standalone="no"?>
<!-- Generator: Adobe Illustrator 16.0.0, SVG Export Plug-In . SVG Version: 6.00 Build 0)  -->

<svg
   xmlns:dc="http://purl.org/dc/elements/1.1/"
   xmlns:cc="http://creativecommons.org/ns#"
   xmlns:rdf="http://www.w3.org/1999/02/22-rdf-syntax-ns#"
   xmlns:svg="http://www.w3.org/2000/svg"
   xmlns="http://www.w3.org/2000/svg"
   xmlns:sodipodi="http://sodipodi.sourceforge.net/DTD/sodipodi-0.dtd"
   xmlns:inkscape="http://www.inkscape.org/namespaces/inkscape"
   version="1.1"
   id="Capa_1"
   x="0px"
   y="0px"
   width="459.325px"
   height="459.325px"
   viewBox="0 0 459.325 459.325"
   style="enable-background:new 0 0 459.325 459.325;"
   xml:space="preserve"
   sodipodi:docname="positive.svg"
   inkscape:version="0.92.4 (5da689c313, 2019-01-14)"><metadata
   id="metadata41"><rdf:RDF><cc:Work
       rdf:about=""><dc:format>image/svg+xml</dc:format><dc:type
         rdf:resource="http://purl.org/dc/dcmitype/StillImage" /></cc:Work></rdf:RDF></metadata><defs
   id="defs39" /><sodipodi:namedview
   pagecolor="#ffffff"
   bordercolor="#666666"
   borderopacity="1"
   objecttolerance="10"
   gridtolerance="10"
   guidetolerance="10"
   inkscape:pageopacity="0"
   inkscape:pageshadow="2"
   inkscape:window-width="730"
   inkscape:window-height="480"
   id="namedview37"
   showgrid="false"
   inkscape:zoom="0.51379741"
   inkscape:cx="229.66251"
   inkscape:cy="229.66251"
   inkscape:window-x="0"
   inkscape:window-y="0"
   inkscape:window-maximized="0"
   inkscape:current-layer="Capa_1" />
<g
   id="g4"
   style="stroke:#ffffff;fill:#ffffff">
	<path
   d="M459.319,229.668c0,22.201-17.992,40.193-40.205,40.193H269.85v149.271c0,22.207-17.998,40.199-40.196,40.193   c-11.101,0-21.149-4.492-28.416-11.763c-7.276-7.281-11.774-17.324-11.769-28.419l-0.006-149.288H40.181   c-11.094,0-21.134-4.492-28.416-11.774c-7.264-7.264-11.759-17.312-11.759-28.413C0,207.471,17.992,189.475,40.202,189.475h149.267   V40.202C189.469,17.998,207.471,0,229.671,0c22.192,0.006,40.178,17.986,40.19,40.187v149.288h149.282   C441.339,189.487,459.308,207.471,459.319,229.668z"
   id="path2"
   style="stroke:#ffffff;fill:#ffffff" />
</g>
<g
   id="g6">
</g>
<g
   id="g8">
</g>
<g
   id="g10">
</g>
<g
   id="g12">
</g>
<g
   id="g14">
</g>
<g
   id="g16">
</g>
<g
   id="g18">
</g>
<g
   id="g20">
</g>
<g
   id="g22">
</g>
<g
   id="g24">
</g>
<g
   id="g26">
</g>
<g
   id="g28">
</g>
<g
   id="g30">
</g>
<g
   id="g32">
</g>
<g
   id="g34">
</g>
</svg>